<?xml version="1.0" ?><svg viewBox="0 0 512 512" xmlns="http://www.w3.org/2000/svg"><defs><style>.cls-1{fill:#d6d6e5;}.cls-2{fill:#55bf7f;}.cls-3{fill:#b4f993;}</style></defs><title/><g data-name="StPatrick's-Flat" id="StPatrick_s-Flat"><g id="location"><ellipse class="cls-1" cx="256" cy="458.3636" rx="99.2727" ry="22.9091"/><path class="cls-2" d="M256,458.3636c5.9967-5.5689,60.7543-56.9157,103.3054-110.5128,32.3616-40.7625,62.87-88.722,64.6946-149.1235a168,168,0,0,0-336,0c1.8244,60.4015,32.333,108.361,64.6946,149.1235C195.2457,401.4479,250.0033,452.7947,256,458.3636"/><path class="cls-3" d="M270.5881,195.04c95.9651-76.14,16.5559-121.9116-14.5838-87.312-31.1222-34.58-110.559,11.1655-14.5839,87.312-113.9219-45.0383-113.8567,46.6179-68.3227,56.2859-13.1794,40.5312,52.3,82.4762,77.1851-3.9492,2.8131,64.476-29.6505,83.4609-30.3814,84.1049-11.5345,10.1658,3.8286,27.6119,15.37,17.44l.1334-.1175c28.09-24.7556,31.3653-63.8581,28.623-94.1294,26.3737,76.6492,87.681,36.0113,74.8825-3.3486C384.4189,241.6639,384.52,149.9968,270.5881,195.04Z"/></g></g></svg>